<?xml version="1.0" standalone="no"?>
<svg xmlns:xlink="http://www.w3.org/1999/xlink" id="wave" style="transform:rotate(0deg); transition: 0.3s" viewBox="0 0 1440 240" version="1.1" xmlns="http://www.w3.org/2000/svg"><defs><linearGradient id="sw-gradient-0" x1="0" x2="0" y1="1" y2="0"><stop stop-color="rgba(250, 166, 22, 1)" offset="0%"/><stop stop-color="rgba(250, 166, 22, 1)" offset="100%"/></linearGradient></defs><path style="transform:translate(0, 0px); opacity:1" fill="url(#sw-gradient-0)" d="M0,48L34.3,40C68.6,32,137,16,206,20C274.3,24,343,48,411,52C480,56,549,40,617,36C685.7,32,754,40,823,72C891.4,104,960,160,1029,176C1097.1,192,1166,168,1234,140C1302.9,112,1371,80,1440,76C1508.6,72,1577,96,1646,112C1714.3,128,1783,136,1851,132C1920,128,1989,112,2057,120C2125.7,128,2194,160,2263,164C2331.4,168,2400,144,2469,112C2537.1,80,2606,40,2674,32C2742.9,24,2811,48,2880,80C2948.6,112,3017,152,3086,152C3154.3,152,3223,112,3291,92C3360,72,3429,72,3497,76C3565.7,80,3634,88,3703,92C3771.4,96,3840,96,3909,108C3977.1,120,4046,144,4114,128C4182.9,112,4251,56,4320,44C4388.6,32,4457,64,4526,64C4594.3,64,4663,32,4731,40C4800,48,4869,96,4903,120L4937.1,144L4937.1,240L4902.9,240C4868.6,240,4800,240,4731,240C4662.9,240,4594,240,4526,240C4457.1,240,4389,240,4320,240C4251.4,240,4183,240,4114,240C4045.7,240,3977,240,3909,240C3840,240,3771,240,3703,240C3634.3,240,3566,240,3497,240C3428.6,240,3360,240,3291,240C3222.9,240,3154,240,3086,240C3017.1,240,2949,240,2880,240C2811.4,240,2743,240,2674,240C2605.7,240,2537,240,2469,240C2400,240,2331,240,2263,240C2194.3,240,2126,240,2057,240C1988.6,240,1920,240,1851,240C1782.9,240,1714,240,1646,240C1577.1,240,1509,240,1440,240C1371.4,240,1303,240,1234,240C1165.7,240,1097,240,1029,240C960,240,891,240,823,240C754.3,240,686,240,617,240C548.6,240,480,240,411,240C342.9,240,274,240,206,240C137.1,240,69,240,34,240L0,240Z"/></svg>